<?xml version="1.0" encoding="UTF-8" standalone="no"?>
<!-- Created with Inkscape (http://www.inkscape.org/) -->

<svg
   width="38.252911mm"
   height="44.700699mm"
   viewBox="0 0 38.252911 44.700699"
   version="1.1"
   id="svg5"
   inkscape:version="1.1.2 (0a00cf5339, 2022-02-04)"
   sodipodi:docname="hammer.svg"
   xmlns:inkscape="http://www.inkscape.org/namespaces/inkscape"
   xmlns:sodipodi="http://sodipodi.sourceforge.net/DTD/sodipodi-0.dtd"
   xmlns="http://www.w3.org/2000/svg"
   xmlns:svg="http://www.w3.org/2000/svg">
  <sodipodi:namedview
     id="namedview7"
     pagecolor="#ffffff"
     bordercolor="#666666"
     borderopacity="1.0"
     inkscape:pageshadow="2"
     inkscape:pageopacity="0.0"
     inkscape:pagecheckerboard="0"
     inkscape:document-units="mm"
     showgrid="false"
     inkscape:snap-global="false"
     inkscape:snap-bbox="false"
     inkscape:bbox-nodes="true"
     inkscape:snap-bbox-midpoints="true"
     inkscape:snap-bbox-edge-midpoints="true"
     inkscape:bbox-paths="true"
     fit-margin-top="0"
     fit-margin-left="0"
     fit-margin-right="0"
     fit-margin-bottom="0"
     inkscape:zoom="1.2351191"
     inkscape:cx="226.69878"
     inkscape:cy="284.99275"
     inkscape:window-width="1920"
     inkscape:window-height="1012"
     inkscape:window-x="0"
     inkscape:window-y="0"
     inkscape:window-maximized="1"
     inkscape:current-layer="layer1" />
  <defs
     id="defs2" />
  <g
     inkscape:label="Layer 1"
     inkscape:groupmode="layer"
     id="layer1"
     transform="translate(-8.6662017,-26.324281)">
    <g
       id="g1137"
       transform="matrix(-0.01542,-0.10017225,0.10017225,-0.01542,10.666711,72.116926)"
       style="fill:#000000">
      <path
         id="path5"
         d="m 380.46,341.58 c -46.11,-63.13 -92.22,-126.27 -138.33,-189.4 -6.22,-8.52 -12.44,-17.03 -18.66,-25.55 -0.48,-0.66 0.77,-5.54 0.41,-7.13 -1.94,-8.55 -7.99,-17.81 -11.53,-25.86 -7.46,-16.967 -16.39,-21.277 -34.93,-19.678 5.53,4.962 12.66,6.029 18.35,9.99 10.33,7.189 13.87,24.668 18.77,35.628 2.56,5.73 -12.33,11.17 -16.86,13.99 -10.47,6.55 -9.82,4.85 -20.89,1.83 -16.1,-4.4 -31.94,-2.32 -46.62,5.79 -14.84,8.2 -28.87,11.67 -45.679,7.94 C 69.199,145.73 60.975,134.09 51.348,122.93 39.2,108.84 27.564,93.698 14.449,80.583 10.315,76.45 4.799,67.496 15.146,68.968 c 6.863,0.977 12.595,4.531 19.631,4.531 10.853,0 22.514,-12.793 31.594,-17.889 66.49763,-28.937178 52.64834,-25.549531 55.519,-37.635 2.35,-9.92 3.81,-13.035 14.41,-6.852 13.5,7.875 21.92,20.036 26.48,34.846 2.24,7.259 9.86,21.385 14.29,27.718 5.93,8.458 11.75,4.067 21.86,3.196 C 177.05,66.87 170.9,31.741 155.35,15.188 142.74,1.778 120.77,-9.905 114.23,12.98 c -1.54,5.385 -1.59,12.599 -5.81,16.146 -6.2,5.211 -20.856,6.937 -29.156,10.686 -13.152,5.94 -25.263,13.087 -37.054,21.373 0.021,-0.03 0.546,-0.507 0.465,-0.464 C 32.18,71.797 3.986,48.959 0.163,69.781 c -2.181,11.875 18.165,28.03 24.891,35.719 10.593,12.1 21.561,27.17 32.722,37.46 -4.453,3.36 -14.374,10.58 -14.17,17.42 0.134,4.49 2.69,5.95 6.039,7.9 2.186,1.27 7.006,-0.86 7.346,1.86 0.315,2.52 0.083,6.26 1.481,8.59 1.617,2.7 3.104,3.72 6.042,4.88 9.166,3.62 9.056,-1.45 11.266,9.64 0.442,2.22 3.369,4.9 5.577,5.35 3.022,0.6 6.115,0.58 9.19,0.74 3.275,0.17 1.292,6.13 2.541,8.66 1.466,2.98 2.769,4.55 5.923,5.81 2.599,1.04 6.459,0.61 9.189,0.82 3.22,0.26 1.35,5.94 2.54,8.47 1.08,2.3 2.25,4.58 4.76,5.58 1.34,0.53 2.83,0.69 4.25,0.77 9.96,0.54 4.61,0.82 8.42,7.83 1.46,2.68 1.68,4.37 4.41,6.27 1.21,0.84 3.24,0.93 4.63,1.04 9.8,0.77 4.99,0.74 8.61,7.79 1.31,2.54 1.39,4.23 3.95,6.15 6.53,4.9 11.98,-2.81 13.33,8.02 1.45,11.55 16.37,5.17 17.34,12.66 1.68,13.04 16.39,7.89 17.54,15.21 1.91,12.29 16.72,8.93 17.54,15.22 1.64,12.81 16.79,8.36 17.65,15.22 0.47,3.78 0.79,6.9 3.95,9.29 3.14,2.38 12.79,0.69 13.19,3.25 0.57,3.66 0.56,8.59 3.54,11.39 3.07,2.88 13.77,1.51 14.08,3.91 0.5,3.9 0.52,8.33 3.57,11.19 3.06,2.86 13.83,1.91 14.08,3.94 0.58,4.59 0.47,8.28 3.81,11.62 3.01,3.01 13.17,0.69 13.65,3.68 1.86,11.54 4.37,13.29 16.1,13.9 1.73,0.09 3.04,8.9 6.95,10.53 4.07,1.69 6.91,-0.48 9.76,-2.56 5.65,-4.11 10.35,-12.35 14.8,-17.66 7.94,-9.48 15.87,-18.95 23.81,-28.42 4.13,-4.93 10.69,-10.58 6,-17.34"
         style="fill:#000000"
         sodipodi:nodetypes="cccccccccccccccscccccccccccccccccscccccccccccccccccccccccccccscsccccc" />
      <path
         id="path9"
         d="m 141.18,58.862 c 0.61,0.174 1.2,0.357 1.85,0.465 -0.65,-0.108 -1.24,-0.291 -1.85,-0.465"
         style="fill:#000000" />
      <path
         id="path13"
         d="m 52.664,74.427 c 1.22,-1.22 1.22,-1.22 0,0"
         style="fill:#000000" />
      <path
         id="path15"
         d="m 54.291,72.336 c 0.985,-0.645 -0.184,0.121 0,0"
         style="fill:#000000" />
      <path
         id="path17"
         d="M 55.221,70.477"
         style="fill:#000000" />
      <path
         id="path19"
         d="m 48.251,59.559 c 0.218,0 0.218,0 0,0"
         style="fill:#000000" />
      <path
         id="path21"
         d="m 44.068,60.023 c -0.364,0.377 -0.364,0.377 0,0"
         style="fill:#000000" />
      <path
         id="path23"
         d="m 47.09,59.327 c -0.367,0.376 -0.367,0.376 0,0"
         style="fill:#000000" />
      <path
         id="path25"
         d="m 45.463,59.559 c -0.19,0.37 -0.19,0.37 0,0"
         style="fill:#000000" />
      <path
         id="path29"
         fill="#ffffff"
         d="M 17.817,79.073 V 78.841 Z"
         style="fill:#000000" />
      <path
         id="path33"
         fill="#ffffff"
         d="m 201.11,89.527 c 0.11,-0.113 0.11,-0.106 0,0"
         style="fill:#000000" />
      <path
         id="path59"
         fill="#dbd6ac"
         d="m 205.99,134.13 c 32.33,44.25 64.66,88.5 96.98,132.75 17.03,23.32 34.07,46.63 51.1,69.94 1.38,1.89 7.85,8.24 6.09,10.34 -9.03,10.76 -18.06,21.53 -27.1,32.29 4.12,-6.57 24.32,-30.11 19.78,-36.33 C 343.92,330.89 335,318.66 326.09,306.43 295.33,264.27 264.58,222.11 233.83,179.95 l -28.95,-39.69 c -3.01,-4.12 -2.21,-3.82 -7.09,-0.78 -10.39,6.47 -11.66,4.71 -22.83,1.52 -15.93,-4.55 -31.8,1.26 -45.55,9.22 -14.27,8.26 -28.56,12.11 -45.029,9.84 -6.791,-0.94 -12.217,-5.11 -18.476,-6.42 -3.891,-0.81 -2.675,-4.52 -6.116,-1.08 -2.608,2.61 -5.215,5.21 -7.823,7.82 13.547,0.77 12.309,0.67 14.067,14.08 0.254,1.94 10.608,1.57 12.583,1.72 5.374,0.4 4.036,6.56 4.763,11.41 1.26,8.39 15.121,-1.91 16.801,9.5 0.69,4.67 -0.602,8.45 4.35,8.82 4.59,0.35 12.16,-1.46 12.85,3.7 0.26,1.96 0.31,11.08 2.35,11.24 2.75,0.2 12.85,-0.71 14.71,1.09 1.83,1.79 1.58,10.74 1.97,13.39 0.3,2 12.52,1.53 14.82,1.66 2.05,0.13 2.25,9.44 2.54,11.42 0.71,4.78 5.38,3.18 9.85,3.51 12.6,0.94 1.5,14.24 12.98,14.92 1.78,0.11 10.66,-0.44 10.9,1.42 0.35,2.63 -0.03,11.61 1.76,13.39 1.81,1.8 12,0.89 14.7,1.09 2.14,0.16 2.51,11.19 2.84,13.46 0.29,1.93 10.62,1.41 12.6,1.52 4.97,0.3 3.6,4.11 4.21,8.78 1.52,11.55 15.77,1.06 16.9,9.51 0.26,1.96 0.31,11.08 2.35,11.23 2.74,0.21 12.85,-0.71 14.7,1.1 1.83,1.79 1.59,10.74 1.98,13.39 0.3,2.03 12.51,1.71 14.82,1.88 2.06,0.15 2.24,9.27 2.53,11.24 0.71,4.73 5.45,3.14 9.86,3.47 12.59,0.94 1.5,14.15 12.98,14.99 1.77,0.13 10.65,-0.29 10.9,1.57 0.35,2.6 -0.01,11.4 1.76,13.17 1.79,1.79 12,0.89 14.7,1.09 2.04,0.16 2.17,8.47 2.49,10.52 7,-8.4 47.68,-48.1 42.14,-55.7 C 354,319.65 336.27,295.34 318.54,271.03 294.16,237.6 269.78,204.17 245.4,170.73 c -8.23,-11.29 -16.46,-22.58 -24.7,-33.87 -6.87,-9.42 -4.21,-7.52 -14.71,-2.73"
         style="fill:#000000" />
    </g>
    <path
       id="rect1179"
       style="fill:#ffffff;stroke-linecap:round;stroke-linejoin:bevel"
       d="m 24.599211,40.343313 3.860038,-1.855419 9.589958,11.906173 -3.922296,4.528342 z"
       sodipodi:nodetypes="ccccc" />
    <g
       id="g1367"
       fill-rule="evenodd"
       stroke="#000000"
       stroke-width="1px"
       transform="matrix(0.05916706,0.0116249,-0.0116249,0.05916706,1.5692388,12.514687)"
       style="fill:#000000">
      <path
         id="path1365"
         d="m 230.64,294.45 5.8,10.15 6.53,9.43 10.15,10.16 13.06,9.42 8.7,5.08 -2.9,-21.76 -30.46,-23.21 z"
         fill="#f7f7f7"
         style="fill:#000000" />
      <path
         id="path1335"
         d="m 599.08,504.05 v -25.38 l -209.61,-205.25 -11.6,-6.53 -14.51,-1.45 -15.23,-0.73 -20.31,-5.8 -26.83,21.76 0.72,6.53 10.88,14.5 7.26,-9.43 9.43,-7.97 14.5,-7.26 17.41,-1.45 13.78,2.9 20.31,15.23 26.83,23.21 31.91,30.46 43.52,44.97 44.24,48.6 z"
         fill="#878376"
         style="fill:#000000" />
      <path
         id="path1337"
         d="m 494.64,171.15 -3.63,6.53 -34.09,-5.08 -13.78,0.73 -16.68,3.62 -13.05,6.53 -10.16,7.26 -7.97,11.6 -3.63,11.6 3.63,13.78 10.15,15.96 11.6,15.23 -24.66,-23.93 -8.7,-18.13 0.73,-23.21 15.95,-21.04 26.84,-11.6 17.4,-4.35 19.59,3.62 z"
         fill="#878376"
         style="fill:#000000" />
      <path
         id="path1339"
         d="m 271.62,258.19 16.68,13.41 22.12,-13.05 6.16,-10.16 -5.8,-12.33 -6.89,-18.85 -0.36,-3.99 -8.34,13.42 -5.81,10.51 -6.16,10.16 -5.8,5.8 z"
         fill="#878376"
         style="fill:#000000" />
      <path
         id="path1343"
         d="m 604.88,430.8 102.26,79.06 36.99,31.91 52.95,52.22 31.18,35.54 23.94,30.46 17.41,18.13 23.2,16.68 9.43,9.43 3.63,7.98 -1.45,7.25 -7.25,10.15 -15.24,18.14 -15.23,13.05 -14.5,8.7 h -12.33 l -6.53,-5.07 -2.9,-7.25 -2.18,-13.79 -4.35,-13.05 -4.35,-9.43 -19.58,-21.03 -18.13,-21.03 -26.84,-26.11 -28.28,-26.84 -21.76,-19.58 -27.56,-24.66 -26.84,-26.11 -24.66,-24.66 -14.5,-13.78 -1.45,-29.01 z"
         fill="#333d47"
         style="fill:#000000" />
      <path
         id="path1345"
         d="m 834.79,688.27 11.61,26.11 4.35,0.73 11.6,-12.33 v -4.35 l -23.21,-10.88 z"
         fill="#ec5c39"
         style="fill:#000000" />
      <path
         id="path1333"
         d="m 590.74,421.74 -40.26,-33 -27.56,-26.11 -44.96,-43.52 -23.94,-23.21 -20.31,-19.58 -26.83,-26.84 -10.88,-11.6 -8.7,-13.78 -2.9,-8.71 -0.73,-11.6 5.08,-14.51 12.33,-12.33 18.85,-8.7 18.14,-5.8 16.31,-0.73 11.25,0.73 14.5,2.9 15.96,5.08 2.17,-4.35 -26.11,-7.26 -28.28,-5.07 -29.74,-0.73 -28.28,5.08 -28.29,10.15 -31.91,20.31 -21.03,21.76 -2.18,5.8 3.63,17.41 7.97,14.5 -1.45,5.08 -14.5,10.88 -9.43,6.53 -16.68,-13.06 -39.89,28.29 -2.18,7.25 14.51,10.15 10.88,10.88 13.78,14.51 5.8,8.7 3.63,1.45 5.07,1.45 29.74,-39.16 -10.88,-13.78 -1.45,-5.81 25.38,-21.75 5.08,1.45 16.68,5.8 h 23.94 l 10.15,2.9 7.98,5.08 209.6,205.25 z"
         fill="#ddded9"
         style="fill:#000000" />
      <path
         id="path1341"
         d="m 590.37,422.82 h 2.18 l 12.33,8.34 8.7,58.03 -0.72,29.37 -14.15,-14.87 v -25.38 z"
         fill="#f2f13e"
         style="fill:#000000" />
    </g>
    <path
       style="fill:#000000;stroke:#000000;stroke-width:0.264583px;stroke-linecap:butt;stroke-linejoin:miter;stroke-opacity:1"
       d="m 19.4779,48.578909 -3.087395,1.79844 -0.876705,1.326256 4.9e-5,0.968066 -0.952457,0.679239 -3.050175,1.911614 -1.5777647,1.82771 -0.7869109,1.730103 0.3961423,0.984967 c 0,0 0.6855423,0.07356 0.8090003,0.115022 0.123459,0.04146 0.945176,0.12885 0.945176,0.12885 l 0.80426,0.408622 2.838993,4.394293 c 0,0 1.838228,1.908836 1.986292,2.050071 0.148063,0.141234 0.403929,1.460762 0.403929,1.460762 l -0.288589,0.993883 0.338847,1.118719 0.68253,-0.160687 2.495049,-2.819699 2.336343,-2.660157 2.262966,-3.380013 -1.233839,-4.390427 -1.505774,-2.608008 0.04161,-2.770002 -1.028366,-2.384791 z"
       id="path3974" />
  </g>
</svg>
